<?xml version="1.0" encoding="utf-8"?>
<!-- Generator: Adobe Illustrator 24.1.1, SVG Export Plug-In . SVG Version: 6.00 Build 0)  -->
<svg version="1.1" id="Layer_1" xmlns="http://www.w3.org/2000/svg" xmlns:xlink="http://www.w3.org/1999/xlink" x="0px" y="0px"
	 viewBox="0 0 312.3 159.7" style="enable-background:new 0 0 312.3 159.7;" xml:space="preserve">
<style type="text/css">
	.st0{fill:#0AA350;}
	.st1{font-family:'Grenale-NorBla';}
	.st2{font-size:35.6893px;}
	.st3{fill:#0066A5;}
	.st4{font-family:'Ambit-Italic';}
	.st5{font-size:16.6673px;}
</style>
<text transform="matrix(0.93 0 0 1 104.4443 83.8903)" class="st0 st1 st2">Se</text>
<text transform="matrix(0.93 0 0 1 145.999 83.8903)" class="st0 st1 st2">l</text>
<text transform="matrix(0.93 0 0 1 156.3135 83.8903)" class="st0 st1 st2">v</text>
<text transform="matrix(0.93 0 0 1 172.8438 83.8903)" class="st0 st1 st2">olutio</text>
<text transform="matrix(0.93 0 0 1 273.0723 83.8903)" class="st0 st1 st2">n</text>
<g>
	<path class="st3" d="M87.3,60.4c-7.4,3-13.5,5.7-19.2,9.4c-6.3,4.1-6.5,10.3-6.3,16.3c0.3,5.6-0.1,11.1-1.2,16.6
		c-1.5,6.5-3.4,13.2-4.5,20l0,0c-1.1-6.8-3-13.5-4.5-20c-1.1-5.5-1.5-11-1.2-16.6c0.2-6-0.1-12.2-6.3-16.3
		c-5.7-3.8-11.9-6.4-19.2-9.4c6.4-0.8,10.8,1.7,15.3,3.6c3.3,1.4,6.3,3.6,9.8,4.7c2.6,0.8,3.9,0.9,3.1-2.6c-0.4-2-1.3-4.7,1.6-5.9
		c0.9-0.4,1.9-0.4,2.8,0c2.9,1.1,2,3.9,1.6,5.9c-0.8,3.5,0.5,3.4,3.1,2.6c3.5-1.1,6.4-3.3,9.8-4.7C76.5,62.1,80.9,59.5,87.3,60.4z"
		/>
	<path class="st0" d="M72.6,59c-0.6,0.7-1.4,1.4-2.2,1.8c-0.9,0.5-1.8,0.8-2.8,0.8c-0.9,0.1-1.8-0.1-2.6-0.5
		c-0.8-0.6-1.4-1.5-1.4-2.5c0,0,0-0.1,0-0.1c-0.1-1-0.1-1.9,0.2-2.9c0.3-0.9,0.7-1.8,1.3-2.6l0.3-0.3c2.7-3.1,7.5-4.6,11.3-6
		C75.9,50.8,75.2,55.7,72.6,59z"/>
	<path class="st0" d="M36.8,59c0.6,0.7,1.4,1.4,2.2,1.8c0.9,0.5,1.8,0.8,2.8,0.8c0.9,0.1,1.8-0.1,2.6-0.5c0.8-0.6,1.4-1.5,1.4-2.5
		c0,0,0-0.1,0-0.1c0.2-1,0.1-1.9-0.2-2.9c-0.2-0.9-0.7-1.8-1.3-2.6l-0.3-0.3c-2.7-3.1-7.5-4.6-11.3-6C33.5,50.8,34.2,55.7,36.8,59z"
		/>
	<path class="st3" d="M49.9,52c0.3,0.9,0.7,1.8,1.3,2.6c0.6,0.8,1.3,1.4,2.2,1.9c0.8,0.5,1.7,0.7,2.6,0.6c1-0.2,1.8-0.8,2.3-1.7
		c0,0,0.1-0.1,0.1-0.1c0.5-0.8,0.9-1.7,1-2.7c0.1-1,0.1-1.9-0.1-2.9c0-0.1-0.1-0.3-0.1-0.4c-1.2-4-5-7.3-7.9-10.1
		C50.2,43.2,48.8,48,49.9,52z"/>
	<path class="st0" d="M47.9,34.1c0.2,0.6,0.6,1.2,1.1,1.7c0.5,0.5,1,0.9,1.6,1.2c0.6,0.3,1.2,0.3,1.8,0.3c0.7-0.2,1.2-0.7,1.5-1.3
		c0,0,0,0,0-0.1c0.3-0.6,0.5-1.2,0.6-1.9c0-0.7-0.1-1.4-0.3-2L54,31.7c-1.1-2.6-3.9-4.7-6.1-6.4C47.5,28,46.9,31.4,47.9,34.1z"/>
	<path class="st0" d="M67,34.1c-0.2,0.6-0.6,1.2-1,1.7c-0.5,0.5-1,0.9-1.7,1.2c-0.6,0.3-1.2,0.3-1.8,0.3c-0.7-0.2-1.2-0.7-1.5-1.3
		c0,0,0,0,0-0.1c-0.3-0.6-0.5-1.2-0.5-1.9c0-0.7,0.1-1.4,0.3-2c0-0.1,0.1-0.2,0.1-0.3C62,29,64.8,27,67,25.2
		C67.4,28,68,31.4,67,34.1z"/>
	<path class="st3" d="M35.5,42.4c0.6,0.6,1.3,1,2.1,1.4c0.8,0.3,1.6,0.5,2.5,0.5c0.8,0,1.6-0.2,2.2-0.7c0.7-0.6,1-1.4,1-2.3
		c0,0,0-0.1,0-0.1c0-0.8-0.1-1.7-0.4-2.5c-0.3-0.8-0.8-1.5-1.4-2.1c-0.1-0.1-0.2-0.2-0.3-0.2c-2.7-2.5-6.9-3.2-10.3-4.1
		C31.9,35.7,33,40,35.5,42.4z"/>
	<path class="st3" d="M72.9,44.4c-0.6,0.6-1.3,1-2.1,1.3c-0.8,0.3-1.6,0.5-2.5,0.5c-0.8,0-1.6-0.2-2.2-0.7c-0.7-0.6-1-1.4-1-2.3
		c0,0,0-0.1,0-0.1c0-0.8,0.1-1.7,0.4-2.5c0.3-0.8,0.8-1.5,1.4-2.1c0.1-0.1,0.2-0.2,0.3-0.2c2.7-2.4,6.9-3.3,10.3-4.1
		C76.6,37.7,75.5,41.9,72.9,44.4z"/>
	<path class="st3" d="M38.9,30c0.3,0.3,0.7,0.6,1.2,0.8c0.4,0.2,0.9,0.3,1.4,0.3c0.4,0,0.9-0.1,1.3-0.4c0.4-0.3,0.6-0.8,0.6-1.3
		v-0.1c0-0.5-0.1-0.9-0.3-1.4c-0.2-0.4-0.4-0.8-0.8-1.2l-0.1-0.1c-1.5-1.4-3.9-1.8-5.8-2.3C36.9,26.1,37.5,28.5,38.9,30z"/>
	<path class="st3" d="M75.2,30c-0.3,0.3-0.7,0.6-1.2,0.8c-0.4,0.2-0.9,0.3-1.4,0.3c-0.4,0-0.9-0.1-1.2-0.4c-0.4-0.3-0.6-0.8-0.6-1.3
		v-0.1c0-0.5,0.1-0.9,0.3-1.4c0.2-0.4,0.4-0.8,0.8-1.2l0.1-0.1c1.5-1.4,3.9-1.8,5.8-2.3C77.3,26.1,76.7,28.5,75.2,30z"/>
	<path class="st0" d="M54.5,25.2c-0.1,0.5-0.1,0.9,0,1.4c0.1,0.5,0.2,0.9,0.5,1.3c0.2,0.4,0.6,0.7,1,0.9c0.5,0.1,1,0.1,1.4-0.2h0.1
		c0.4-0.2,0.7-0.6,1-0.9c0.3-0.4,0.5-0.8,0.6-1.3c0-0.1,0-0.1,0-0.2c0.4-2-0.5-4.3-1.1-6.2C56.7,21.4,55,23.2,54.5,25.2z"/>
	<path class="st0" d="M25.8,43.6c0.5,0.4,1,0.8,1.6,1c0.6,0.2,1.2,0.3,1.8,0.3c0.6,0,1.1-0.2,1.6-0.5c0.5-0.4,0.7-1.1,0.7-1.7v-0.1
		c0-0.6-0.1-1.2-0.4-1.8c-0.2-0.6-0.6-1.1-1.1-1.5C30.1,39.1,30,39.1,30,39c-2-1.8-5.2-2.3-7.8-2.8C23,38.7,23.9,41.8,25.8,43.6z"/>
	<path class="st3" d="M22.6,55.1c0.6,0.3,1.3,0.5,2.1,0.6c0.7,0.1,1.5,0,2.2-0.3c0.6-0.2,1.2-0.6,1.7-1.1c0.4-0.6,0.5-1.4,0.2-2.1
		c0,0,0-0.1,0-0.1c-0.2-0.7-0.5-1.4-1-1.9c-0.5-0.6-1-1-1.7-1.4l-0.3-0.1c-2.8-1.3-6.6-0.9-9.6-0.7C17.9,50.4,19.8,53.6,22.6,55.1z"
		/>
	<path class="st3" d="M86,55c-0.6,0.3-1.3,0.5-2.1,0.6c-0.7,0.1-1.5,0-2.2-0.3c-0.7-0.2-1.2-0.6-1.7-1.1c-0.4-0.6-0.5-1.4-0.2-2.1
		c0,0,0-0.1,0-0.1c0.2-0.7,0.5-1.4,1-1.9c0.5-0.6,1-1,1.7-1.4l0.3-0.1c2.8-1.3,6.6-0.9,9.6-0.7C90.7,50.3,88.7,53.6,86,55z"/>
	<path class="st0" d="M84.5,43.6c-0.4,0.4-0.9,0.6-1.4,0.8c-0.5,0.2-1.1,0.3-1.6,0.2c-0.5,0-1-0.2-1.4-0.5c-0.4-0.4-0.6-1-0.6-1.5
		v-0.1c0-0.6,0.1-1.1,0.4-1.6c0.2-0.5,0.6-1,1-1.3l0.2-0.1c1.8-1.5,4.7-1.9,7-2.3C87.1,39.3,86.3,42,84.5,43.6z"/>
	<path class="st3" d="M42.6,79.4c0.5-0.5,0.8-1,1.1-1.6c0.3-0.6,0.4-1.2,0.4-1.8c0-0.6-0.2-1.2-0.5-1.7c-0.4-0.5-1.1-0.8-1.8-0.8
		h-0.1c-0.6,0-1.3,0.1-1.9,0.3c-0.6,0.2-1.2,0.6-1.6,1L38,75c-1.9,2-2.6,5.3-3.3,7.9C37.3,82.1,40.6,81.3,42.6,79.4z"/>
	<path class="st0" d="M28.8,72.6c0.6-0.1,1.3-0.3,1.8-0.6c0.6-0.3,1.1-0.8,1.4-1.3c0.4-0.5,0.6-1.1,0.6-1.7c0-0.7-0.4-1.3-0.9-1.7
		l-0.1-0.1c-0.5-0.4-1.1-0.7-1.7-0.9c-0.6-0.2-1.3-0.2-1.9-0.2h-0.3c-2.7,0.5-5.3,2.7-7.4,4.4C23,71.6,26,73,28.8,72.6z"/>
	<path class="st3" d="M68.7,79.4c-0.5-0.5-0.8-1-1.1-1.6c-0.3-0.6-0.4-1.2-0.4-1.9c0-0.6,0.2-1.2,0.5-1.7c0.4-0.5,1.1-0.8,1.8-0.8
		h0.1c0.6,0,1.3,0.1,1.9,0.3c0.6,0.2,1.2,0.6,1.6,1c0.1,0.1,0.1,0.1,0.2,0.2c1.9,2,2.6,5.3,3.3,7.9C73.9,82.1,70.7,81.3,68.7,79.4z"
		/>
	<path class="st0" d="M82.5,72.6c-0.6-0.1-1.3-0.3-1.8-0.6c-0.6-0.3-1.1-0.8-1.4-1.3c-0.4-0.5-0.6-1.1-0.6-1.7
		c0-0.7,0.4-1.3,0.9-1.7l0.1-0.1c0.5-0.4,1.1-0.7,1.7-0.9c0.6-0.2,1.3-0.2,1.9-0.2h0.3c2.7,0.5,5.3,2.7,7.4,4.4
		C88.3,71.6,85.2,73,82.5,72.6z"/>
</g>
<text transform="matrix(1 0 0 1 172.8444 105.3009)" class="st4 st5">...becoming you</text>
</svg>
